<?xml version="1.0" encoding="UTF-8"?>
<!DOCTYPE svg PUBLIC "-//W3C//DTD SVG 1.1//EN" "http://www.w3.org/Graphics/SVG/1.1/DTD/svg11.dtd">
<svg version="1.1" xmlns="http://www.w3.org/2000/svg" xmlns:xlink="http://www.w3.org/1999/xlink" x="0" y="0" width="580" height="510" viewBox="0, 0, 580, 510">
  <g id="blue">
    <path d="M125.723,34.375 C192.219,84.296 263.743,185.515 290.003,239.835 C316.265,185.519 387.785,84.295 454.283,34.375 C502.263,-1.646 580.003,-29.517 580.003,59.17 C580.003,76.882 569.848,207.96 563.892,229.24 C543.189,303.224 467.748,322.094 400.642,310.673 C517.942,330.637 547.782,396.765 483.339,462.893 C360.949,588.483 307.429,431.382 293.709,391.127 C291.195,383.747 290.019,380.295 290.002,383.231 C289.984,380.295 288.808,383.747 286.294,391.127 C272.58,431.382 219.061,588.487 96.664,462.893 C32.22,396.765 62.059,330.633 179.361,310.673 C112.253,322.094 36.811,303.224 16.111,229.24 C10.155,207.958 -0,76.88 -0,59.17 C-0,-29.517 77.742,-1.646 125.72,34.375 z" fill="#1185FE" id="Bluesky_Logo"/>
  </g>
  <g id="white" display="none">
    <path d="M125.72,33.694 C192.216,83.615 263.74,184.834 290,239.154 C316.262,184.838 387.782,83.614 454.28,33.694 C502.26,-2.327 580,-30.198 580,58.489 C580,76.201 569.845,207.279 563.889,228.559 C543.186,302.543 467.745,321.413 400.639,309.992 C517.939,329.956 547.779,396.084 483.336,462.212 C360.946,587.802 307.426,430.701 293.706,390.446 C291.192,383.067 290.016,379.614 289.998,382.55 C289.981,379.614 288.805,383.067 286.291,390.446 C272.577,430.701 219.058,587.806 96.661,462.212 C32.217,396.084 62.056,329.952 179.358,309.992 C112.25,321.413 36.808,302.543 16.108,228.559 C10.151,207.277 -0.003,76.199 -0.003,58.489 C-0.003,-30.198 77.739,-2.327 125.717,33.694 z" fill="#FFFFFF" id="Bluesky_Logo"/>
  </g>
</svg>
