<?xml version="1.0" encoding="UTF-8"?>
<!DOCTYPE svg PUBLIC "-//W3C//DTD SVG 1.1//EN" "http://www.w3.org/Graphics/SVG/1.1/DTD/svg11.dtd">
<svg version="1.1" xmlns="http://www.w3.org/2000/svg" xmlns:xlink="http://www.w3.org/1999/xlink" x="0" y="0" width="64" height="64" viewBox="0, 0, 64, 64">
  <g id="Layer_1">
    <path d="M27.281,62.131 L27.326,46.487 L18.906,59.671 L23.356,44.674 L11.562,54.952 L20.057,41.816 L5.846,48.355 L17.697,38.144 L2.219,40.414 L16.468,33.956 L0.977,31.774 L16.468,29.591 L2.219,23.133 L17.697,25.404 L5.846,15.193 L20.057,21.732 L11.562,8.596 L23.356,18.873 L18.906,3.876 L27.326,17.06 L27.281,1.417 L31.646,16.439 L36.011,1.417 L35.966,17.06 L44.386,3.876 L39.936,18.874 L51.73,8.596 L43.235,21.732 L57.446,15.193 L45.595,25.404 L61.073,23.133 L46.824,29.591 L62.315,31.774 L46.824,33.956 L61.073,40.414 L45.595,38.144 L57.446,48.355 L43.235,41.816 L51.73,54.952 L39.936,44.674 L44.386,59.671 L35.966,46.487 L36.011,62.131 L31.646,47.108 z" fill="#FFFF00"/>
  </g>
  <g id="Layer_2" display="none">
    <text transform="matrix(1, 0, 0, 1, 32, 27.898)">
      <tspan x="-30.294" y="13.358" font-family="AppleSymbols" font-size="39.568" kerning="0" fill="#000000">𝄆𝄐𝄇</tspan>
    </text>
  </g>
  <g id="Layer_2.1">
    <text transform="matrix(1, 0, 0, 1, 32, 37.655)">
      <tspan x="-27.941" y="15.303" font-family="AppleSymbols" font-size="65.1" kerning="0" fill="#000000">𝄆𝄇</tspan>
    </text>
  </g>
</svg>
