<?xml version="1.0" encoding="UTF-8"?>
<!DOCTYPE svg PUBLIC "-//W3C//DTD SVG 1.1//EN" "http://www.w3.org/Graphics/SVG/1.1/DTD/svg11.dtd">
<svg version="1.1" xmlns="http://www.w3.org/2000/svg" xmlns:xlink="http://www.w3.org/1999/xlink" x="0" y="0" width="310" height="405" viewBox="0, 0, 310, 405">
  <g id="Notes">
    <g>
      <path d="M55.96,89.576 C48.936,89.576 43.242,83.881 43.242,76.857 C43.242,69.833 48.936,64.139 55.96,64.139 C62.984,64.139 68.678,69.833 68.678,76.857 C68.678,83.881 62.984,89.576 55.96,89.576 z" fill="#000000"/>
      <path d="M55.96,89.576 C48.936,89.576 43.242,83.881 43.242,76.857 C43.242,69.833 48.936,64.139 55.96,64.139 C62.984,64.139 68.678,69.833 68.678,76.857 C68.678,83.881 62.984,89.576 55.96,89.576 z" fill-opacity="0" stroke="#000000" stroke-width="1"/>
    </g>
    <g>
      <path d="M103.834,232.988 C96.81,232.988 91.116,227.294 91.116,220.27 C91.116,213.246 96.81,207.552 103.834,207.552 C110.858,207.552 116.552,213.246 116.552,220.27 C116.552,227.294 110.858,232.988 103.834,232.988 z" fill="#000000"/>
      <path d="M103.834,232.988 C96.81,232.988 91.116,227.294 91.116,220.27 C91.116,213.246 96.81,207.552 103.834,207.552 C110.858,207.552 116.552,213.246 116.552,220.27 C116.552,227.294 110.858,232.988 103.834,232.988 z" fill-opacity="0" stroke="#000000" stroke-width="1"/>
    </g>
    <g>
      <path d="M103.834,232.988 C96.81,232.988 91.116,227.294 91.116,220.27 C91.116,213.246 96.81,207.552 103.834,207.552 C110.858,207.552 116.552,213.246 116.552,220.27 C116.552,227.294 110.858,232.988 103.834,232.988 z" fill="#000000"/>
      <path d="M103.834,232.988 C96.81,232.988 91.116,227.294 91.116,220.27 C91.116,213.246 96.81,207.552 103.834,207.552 C110.858,207.552 116.552,213.246 116.552,220.27 C116.552,227.294 110.858,232.988 103.834,232.988 z" fill-opacity="0" stroke="#000000" stroke-width="1"/>
    </g>
    <g>
      <path d="M151.706,232.988 C144.682,232.988 138.988,227.294 138.988,220.27 C138.988,213.246 144.682,207.552 151.706,207.552 C158.73,207.552 164.424,213.246 164.424,220.27 C164.424,227.294 158.73,232.988 151.706,232.988 z" fill="#000000"/>
      <path d="M151.706,232.988 C144.682,232.988 138.988,227.294 138.988,220.27 C138.988,213.246 144.682,207.552 151.706,207.552 C158.73,207.552 164.424,213.246 164.424,220.27 C164.424,227.294 158.73,232.988 151.706,232.988 z" fill-opacity="0" stroke="#000000" stroke-width="1"/>
    </g>
    <g>
      <path d="M151.706,232.988 C144.682,232.988 138.988,227.294 138.988,220.27 C138.988,213.246 144.682,207.552 151.706,207.552 C158.73,207.552 164.424,213.246 164.424,220.27 C164.424,227.294 158.73,232.988 151.706,232.988 z" fill="#000000"/>
      <path d="M151.706,232.988 C144.682,232.988 138.988,227.294 138.988,220.27 C138.988,213.246 144.682,207.552 151.706,207.552 C158.73,207.552 164.424,213.246 164.424,220.27 C164.424,227.294 158.73,232.988 151.706,232.988 z" fill-opacity="0" stroke="#000000" stroke-width="1"/>
    </g>
    <g>
      <path d="M199.643,161.749 C192.619,161.749 186.925,156.055 186.925,149.031 C186.925,142.007 192.619,136.313 199.643,136.313 C206.668,136.313 212.362,142.007 212.362,149.031 C212.362,156.055 206.668,161.749 199.643,161.749 z" fill="#000000"/>
      <path d="M199.643,161.749 C192.619,161.749 186.925,156.055 186.925,149.031 C186.925,142.007 192.619,136.313 199.643,136.313 C206.668,136.313 212.362,142.007 212.362,149.031 C212.362,156.055 206.668,161.749 199.643,161.749 z" fill-opacity="0" stroke="#000000" stroke-width="1"/>
    </g>
    <g>
      <path d="M199.643,161.749 C192.619,161.749 186.925,156.055 186.925,149.031 C186.925,142.007 192.619,136.313 199.643,136.313 C206.668,136.313 212.362,142.007 212.362,149.031 C212.362,156.055 206.668,161.749 199.643,161.749 z" fill="#000000"/>
      <path d="M199.643,161.749 C192.619,161.749 186.925,156.055 186.925,149.031 C186.925,142.007 192.619,136.313 199.643,136.313 C206.668,136.313 212.362,142.007 212.362,149.031 C212.362,156.055 206.668,161.749 199.643,161.749 z" fill-opacity="0" stroke="#000000" stroke-width="1"/>
    </g>
    <g>
      <path d="M247.706,89.576 C240.682,89.576 234.988,83.881 234.988,76.857 C234.988,69.833 240.682,64.139 247.706,64.139 C254.73,64.139 260.424,69.833 260.424,76.857 C260.424,83.881 254.73,89.576 247.706,89.576 z" fill="#000000"/>
      <path d="M247.706,89.576 C240.682,89.576 234.988,83.881 234.988,76.857 C234.988,69.833 240.682,64.139 247.706,64.139 C254.73,64.139 260.424,69.833 260.424,76.857 C260.424,83.881 254.73,89.576 247.706,89.576 z" fill-opacity="0" stroke="#000000" stroke-width="1"/>
    </g>
    <g>
      <path d="M247.706,89.576 C240.682,89.576 234.988,83.881 234.988,76.857 C234.988,69.833 240.682,64.139 247.706,64.139 C254.73,64.139 260.424,69.833 260.424,76.857 C260.424,83.881 254.73,89.576 247.706,89.576 z" fill="#000000"/>
      <path d="M247.706,89.576 C240.682,89.576 234.988,83.881 234.988,76.857 C234.988,69.833 240.682,64.139 247.706,64.139 C254.73,64.139 260.424,69.833 260.424,76.857 C260.424,83.881 254.73,89.576 247.706,89.576 z" fill-opacity="0" stroke="#000000" stroke-width="1"/>
    </g>
  </g>
  <g id="Neck">
    <g>
      <path d="M8.372,46.514 L23.072,30.145 L37.773,46.514 z" fill="#000000"/>
      <path d="M8.372,46.514 L23.072,30.145 L37.773,46.514 z" fill-opacity="0" stroke="#A6A6A6" stroke-width="1"/>
    </g>
    <g>
      <path d="M8.372,375.237 L23.072,391.606 L37.773,375.237 z" fill="#000000"/>
      <path d="M8.372,375.237 L23.072,391.606 L37.773,375.237 z" fill-opacity="0" stroke="#A6A6A6" stroke-width="1"/>
    </g>
    <text transform="matrix(1, 0, 0, 1, 22.572, 65.536)">
      <tspan x="-6.674" y="8" font-family="Helvetica" font-size="24" fill="#000000">1</tspan>
    </text>
    <text transform="matrix(1, 0, 0, 1, 22.572, 137.464)">
      <tspan x="-6.674" y="8" font-family="Helvetica" font-size="24" fill="#000000">2</tspan>
    </text>
    <text transform="matrix(1, 0, 0, 1, 22.572, 209.556)">
      <tspan x="-6.674" y="8" font-family="Helvetica" font-size="24" fill="#000000">3</tspan>
    </text>
    <text transform="matrix(1, 0, 0, 1, 22.572, 281.604)">
      <tspan x="-6.674" y="8" font-family="Helvetica" font-size="24" fill="#000000">4</tspan>
    </text>
    <text transform="matrix(1, 0, 0, 1, 22.572, 353.391)">
      <tspan x="-6.674" y="8" font-family="Helvetica" font-size="24" fill="#000000">5</tspan>
    </text>
  </g>
  <g id="Nut">
    <g>
      <path d="M55.416,21.73 C52.214,21.73 49.521,18.502 49.521,15.3 C49.521,12.098 52.117,9.502 55.319,9.502 C58.521,9.502 61.117,12.098 61.117,15.3 C61.117,18.502 58.618,21.73 55.416,21.73 z" fill-opacity="0" stroke="#000000" stroke-width="1"/>
      <g>
        <path d="M98.036,9.818 L109.632,21.414" fill-opacity="0" stroke="#000000" stroke-width="1"/>
        <path d="M98.036,21.414 L109.632,9.818" fill-opacity="0" stroke="#000000" stroke-width="1"/>
      </g>
      <path d="M151.803,21.73 C148.601,21.73 145.908,18.502 145.908,15.3 C145.908,12.098 148.504,9.502 151.706,9.502 C154.908,9.502 157.504,12.098 157.504,15.3 C157.504,18.502 155.005,21.73 151.803,21.73 z" fill-opacity="0" stroke="#000000" stroke-width="1"/>
      <path d="M247.803,21.73 C244.601,21.73 241.908,18.502 241.908,15.3 C241.908,12.098 244.504,9.502 247.706,9.502 C250.908,9.502 253.504,12.098 253.504,15.3 C253.504,18.502 251.005,21.73 247.803,21.73 z" fill-opacity="0" stroke="#000000" stroke-width="1"/>
      <g>
        <path d="M193.846,9.818 L205.442,21.414" fill-opacity="0" stroke="#000000" stroke-width="1"/>
        <path d="M193.846,21.414 L205.442,9.818" fill-opacity="0" stroke="#000000" stroke-width="1"/>
      </g>
      <g>
        <path d="M289.486,9.818 L301.082,21.414" fill-opacity="0" stroke="#000000" stroke-width="1"/>
        <path d="M289.486,21.414 L301.082,9.818" fill-opacity="0" stroke="#000000" stroke-width="1"/>
      </g>
    </g>
  </g>
  <g id="Frets">
    <path d="M56.087,28.917 L56.087,390.377" fill-opacity="0" stroke="#000000" stroke-width="1"/>
    <path d="M103.961,28.917 L103.961,390.377" fill-opacity="0" stroke="#000000" stroke-width="1"/>
    <path d="M151.833,28.917 L151.833,390.377" fill-opacity="0" stroke="#000000" stroke-width="1"/>
    <path d="M199.77,29.736 L199.77,391.196" fill-opacity="0" stroke="#000000" stroke-width="1"/>
    <path d="M247.833,29.736 L247.833,391.196" fill-opacity="0" stroke="#000000" stroke-width="1"/>
    <path d="M295.411,29.736 L295.411,391.196" fill-opacity="0" stroke="#000000" stroke-width="1"/>
    <path d="M56.087,29.736 L295.411,29.736" fill-opacity="0" stroke="#000000" stroke-width="1"/>
    <path d="M55.64,101.619 L294.964,101.619" fill-opacity="0" stroke="#000000" stroke-width="1"/>
    <path d="M56.087,173.877 L295.411,173.877" fill-opacity="0" stroke="#000000" stroke-width="1"/>
    <path d="M55.64,245.789 L294.964,245.789" fill-opacity="0" stroke="#000000" stroke-width="1"/>
    <path d="M55.64,317.927 L294.964,317.927" fill-opacity="0" stroke="#000000" stroke-width="1"/>
    <path d="M55.64,391.196 L294.964,391.196" fill-opacity="0" stroke="#000000" stroke-width="1"/>
  </g>
</svg>
