<svg version="1.1" xmlns="http://www.w3.org/2000/svg" xmlns:xlink="http://www.w3.org/1999/xlink" x="0" y="0" width="1060" height="600" viewBox="0, 0, 1060, 600">
  <g id="Roads">
    <g>
      <path d="M39.347,272.032 C47.867,284.812 63.347,294.377 75.017,303.458" fill-opacity="0" stroke="#000000" stroke-width="10"/>
      <g>
        <g>
          <path d="M806.476,283.597 C844.345,285.535 870.846,286.637 879.891,276.011 C886.805,267.89 881.617,253.273 876.295,231.221 C873.899,221.291 869.54,199.921 868.639,187.31 C866.779,161.273 885.765,138.676 874.043,114.801 C869.024,104.578 867.871,101.697 851.975,92.958 C836.857,84.648 824.436,78.42 807.389,76.745 C798.838,75.905 778.372,78.221 773.612,82.6 C761.902,93.371 760.635,99.593 755.216,114.26 C754.68,115.712 747.889,155.379 751.929,163.17 C760.755,180.191 781.217,185.247 790.275,200.596 C792.511,204.385 797.381,218.901 799.483,235.694 C802.102,256.623 803.655,278.825 806.957,282.127 C808.316,283.486 811.646,310.057 811.654,320.072 C811.663,331.667 811.276,343.949 810.821,358.319 C810.484,368.954 807.161,379.904 806.717,389.058 C806.05,402.807 805.245,407.566 805.464,415.607" fill-opacity="0" stroke="#000000" stroke-width="10"/>
          <path d="M450.269,385.342 C453.023,383.939 464.367,373.886 474.065,367.764 C483.317,361.923 490.946,359.987 493.224,359.246 C503.556,355.885 505.113,355.562 524.268,353.567 C532.71,352.688 532.249,352.37 547.813,349.577 C554.478,348.38 564.636,344.381 571.756,340.398 C579.547,336.041 585.765,329.896 591.51,325.034 C593.297,323.522 600.496,312.573 611.363,307.87 C622.668,302.978 629.545,302.502 638.376,306.138 C646.493,309.48 662.742,312.464 680.5,317.851 C685.534,319.379 704.027,325.79 717.612,324.037 C726.872,322.842 734.132,319.385 744.748,314.858 C753.375,311.181 759.168,308.132 760.91,307.276 C768.19,303.702 774.924,296.556 782.71,292.292 C791.393,287.537 792.914,282.806 808.09,284.165" fill-opacity="0" stroke="#000000" stroke-width="10"/>
          <path d="M321.204,223.251 C331.017,216.812 347.519,200.474 366.884,190.583 C377.284,185.271 385.251,186.259 393.646,188.746 C402.542,191.382 410.833,195.047 419.565,197.295 C428.957,199.714 438.859,200.494 450.571,196.593 C453.062,195.547 463.76,190.017 476.597,188.607 C485.66,187.612 496.204,190.545 503.863,190.33 C513.712,190.054 547.551,197.253 557.844,198.643 C567.832,199.992 602.043,203.431 613.665,205.378 C636.649,209.228 663.694,208.039 686.564,203.175 C703.641,199.544 718.351,190.322 734.08,178.537 C740.107,174.022 745.99,171.542 752.434,165.045" fill-opacity="0" stroke="#000000" stroke-width="10"/>
          <path d="M265.948,119.306 C270.579,137.573 289.803,179.937 299.651,194.944 C348.442,257.227 430.052,358.952 448.624,379.404 C468.004,400.747 478.757,414.888 496.216,428.959 C505.37,436.337 509.103,443.244 516.823,448.094" fill-opacity="0" stroke="#000000" stroke-width="10"/>
          <path d="M299.651,197.516 C292.479,202.513 275.948,227.53 270.837,235.078 C264.627,244.248 261.021,253.433 258.488,264.149 C254.294,281.887 253.805,297.045 261.511,314.153 C269.393,331.651 274.549,341.385 285.042,354.774 C294.709,367.11 292.87,365.512 309.563,381.277 C322.938,393.909 329.378,395.89 343.992,400.596 C358.011,405.111 388.275,401.974 404.712,398.539 C406.427,398.181 424.704,395.48 434.641,392.406 C443.417,389.692 449.341,385.701 454.512,383.82" fill-opacity="0" stroke="#000000" stroke-width="10"/>
          <path d="M255.567,289.632 C238.724,291.118 221.781,298.475 211.584,311.033 C204.087,320.265 193.92,331.476 183.346,343.959 C171.44,358.015 158.766,372.974 143.995,374.975 C134.721,376.231 119.991,378.24 100.027,379.285 C75.157,380.586 49.647,394.581 42.527,400.433" fill-opacity="0" stroke="#000000" stroke-width="10"/>
          <path d="M844.291,419.732 C840.973,435.288 849.315,474.286 850.935,490.892 C853.21,514.205 858.002,530.151 862.081,546.835 C864.438,556.48 869.366,575.643 873.012,583.487" fill-opacity="0" stroke="#000000" stroke-width="10"/>
          <path d="M502.563,73.378 C504.105,63.643 511.835,60.453 526.727,47.528 C539.556,36.394 557.158,31.067 568.461,34.926 C573.865,36.772 590.316,45.989 586.294,60.172 C580.955,78.998 572.526,74.502 553.542,76.454 C537.449,78.109 521.714,75.337 506.599,75.227 C497.45,75.161 483.176,73.378 466.598,73.097 C451.171,72.98 445.708,74.047 428.947,73.097 C414.747,72.293 403.103,74.377 389.061,74.821 C381.065,75.074 337.998,83.113 328.208,87.92 C315.182,94.314 311.286,94.182 298.622,101.298 C288.833,106.797 272.123,116.991 261.575,123.423 C245.624,130.626 237.414,136.998 228.902,143.49 C218.469,151.447 213.465,155.839 204.718,166.13 C199.754,171.97 187.739,203.176 175.594,216.327 C171.066,221.231 166.606,226.581 162.61,232.221 C152.75,246.14 125.24,267.851 120.077,271.867 C106.184,282.673 83.818,300.771 67.257,314.328 C51.967,326.845 43.627,328.34 37.627,344.896 C33.447,356.415 35.517,374.979 39.027,389.466 C42.287,397.166 44.847,403.753 43.457,406.967 C40.797,413.132 42.387,421.366 42.757,432.868 C43.077,442.817 50.127,459.496 59.327,475.571 C64.537,484.689 71.317,493.778 78.087,500.955 C84.416,507.679 87.698,510.156 92.693,511.973 C94.492,512.627 103.678,514.893 113.18,513.848 C119.834,513.115 128.129,512.017 137.721,510.626 C231.695,496.993 450.167,455.168 468.881,452.634 C483.341,450.675 498.502,448.121 512.898,446.867 C515.135,441.751 520.272,438.193 535.186,433.99 C551.156,429.489 568.35,427.804 577.774,426.316 C583.137,425.469 606.747,426.76 617.678,429.578 C620.059,430.191 644.719,438.786 647.102,438.42 C658.786,436.622 663.593,438.985 668.213,434.432 C674.52,428.217 675.515,425.613 681.607,418.446 C688.894,409.872 711.984,401.115 726.833,401.727 C736.183,402.113 745.687,404.615 755.983,411.587 C758.102,413.022 764.667,416.396 765.842,417.588 C769.728,421.531 783.928,416.504 794.92,415.158 C809.433,415.264 851.727,423.446 862.669,418.074 C894.946,402.228 983.575,381.157 1022.844,381.957" fill-opacity="0" stroke="#000000" stroke-width="10"/>
          <path d="M767.986,419.089 C766.768,419.131 757.135,432.045 747.195,436.022 C736.478,440.308 732.344,440.32 731.548,440.308 C717.187,440.094 708.399,440.308 699.183,439.022 C682.591,436.707 673.675,438.23 667.675,433.878" fill-opacity="0" stroke="#000000" stroke-width="10"/>
          <path d="M644.727,439.17 C635.045,446.8 617.974,454.569 605.016,459.313 C591.355,464.314 580.359,467.455 571.635,468.521 C551.288,471.009 547.272,467.946 537.871,465.068 C523.814,460.765 520.244,450.463 513.634,446.622" fill-opacity="0" stroke="#000000" stroke-width="10"/>
        </g>
        <path d="M378.922,507.603 C364.606,506.008 362.465,486.585 360.294,475.728" fill-opacity="0" stroke="#000000" stroke-width="10"/>
      </g>
    </g>
  </g>
  <g id="Trails">
    <path d="M615.327,302.043 C615.327,292.41 613.462,283.168 611.588,276.66 C607.942,263.997 604.463,257.54 602.655,253.413 C595.399,236.849 580.351,215.286 568.818,203.754" fill-opacity="0" stroke="#000000" stroke-width="3" stroke-dasharray="9,6" stroke-linecap="round"/>
    <path d="M830.327,78.961 C831.236,72.367 839.088,50.918 842.043,45.009" fill-opacity="0" stroke="#000000" stroke-width="3" stroke-dasharray="9,6" stroke-linecap="round"/>
    <path d="M508.271,142.702 C522.942,121.934 550.633,100.099 570.541,80.191" fill-opacity="0" stroke="#000000" stroke-width="3" stroke-dasharray="9,6" stroke-linecap="round"/>
    <path d="M508.271,142.702 C503.076,137.902 498.544,132.751 493.746,127.952 C488.67,122.877 477.977,114.447 471.925,110.365 C460.577,102.711 452.367,97.14 444.367,92.333 C432.176,85.009 421.012,80.191 412.522,76.856" fill-opacity="0" stroke="#000000" stroke-width="3" stroke-dasharray="9,6" stroke-linecap="round"/>
  </g>
  <g id="Sites">
    <text transform="matrix(1, 0, -0, 1, 262.674, 95.615)">
      <tspan x="-10.011" y="5.08" font-family="ArialMT" font-size="18" fill="#000000">59</tspan>
    </text>
    <text transform="matrix(1, 0, -0, 1, 224.388, 122.252)">
      <tspan x="-10.011" y="5.08" font-family="ArialMT" font-size="18" fill="#CBCBCB">61</tspan>
    </text>
    <text transform="matrix(1, 0, -0, 1, 241.674, 164.344)">
      <tspan x="-10.011" y="5.08" font-family="ArialMT" font-size="18" fill="#000000">60</tspan>
    </text>
    <text transform="matrix(1, 0, -0, 1, 187.783, 150.011)">
      <tspan x="-10.011" y="5.08" font-family="ArialMT" font-size="18" fill="#CBCBCB">62</tspan>
    </text>
    <text transform="matrix(1, 0, -0, 1, 164.783, 189.731)">
      <tspan x="-10.011" y="5.08" font-family="ArialMT" font-size="18" fill="#CBCBCB">63</tspan>
    </text>
    <text transform="matrix(1, 0, -0, 1, 203.388, 214.674)">
      <tspan x="-10.011" y="5.08" font-family="ArialMT" font-size="18" fill="#CBCBCB">64</tspan>
    </text>
    <text transform="matrix(1, 0, -0, 1, 137.358, 228.09)">
      <tspan x="-10.011" y="5.08" font-family="ArialMT" font-size="18" fill="#CBCBCB">65</tspan>
    </text>
    <text transform="matrix(1, 0, -0, 1, 117.358, 301)">
      <tspan x="-10.011" y="5.08" font-family="ArialMT" font-size="18" fill="#CBCBCB">66</tspan>
    </text>
    <text transform="matrix(1, 0, -0, 1, 87.827, 267.242)">
      <tspan x="-10.011" y="5.08" font-family="ArialMT" font-size="18" fill="#CBCBCB">67</tspan>
    </text>
    <text transform="matrix(1, 0, -0, 1, 14.5, 356.488)">
      <tspan x="-10.011" y="5.08" font-family="ArialMT" font-size="18" fill="#CBCBCB">68</tspan>
    </text>
    <text transform="matrix(1, 0, -0, 1, 23.827, 441.865)">
      <tspan x="-10.011" y="5.08" font-family="ArialMT" font-size="18" fill="#CBCBCB">69</tspan>
    </text>
    <text transform="matrix(1, 0, -0, 1, 44.827, 490.409)">
      <tspan x="-10.011" y="5.08" font-family="ArialMT" font-size="18" fill="#CBCBCB">70</tspan>
    </text>
    <text transform="matrix(1, 0, -0, 1, 71.982, 455.925)">
      <tspan x="-10.011" y="5.08" font-family="ArialMT" font-size="18" fill="#CBCBCB">71</tspan>
    </text>
    <text transform="matrix(1, 0, -0, 1, 87.827, 404.865)">
      <tspan x="-10.011" y="5.08" font-family="ArialMT" font-size="18" fill="#CBCBCB">72</tspan>
    </text>
    <text transform="matrix(1, 0, -0, 1, 71.982, 364.946)">
      <tspan x="-10.011" y="5.08" font-family="ArialMT" font-size="18" fill="#CBCBCB">73</tspan>
    </text>
    <text transform="matrix(1, 0, -0, 1, 114.358, 359.488)">
      <tspan x="-10.011" y="5.08" font-family="ArialMT" font-size="18" fill="#CBCBCB">74</tspan>
    </text>
    <text transform="matrix(1, 0, -0, 1, 155.566, 393.929)">
      <tspan x="-10.011" y="5.08" font-family="ArialMT" font-size="18" fill="#CBCBCB">75</tspan>
    </text>
    <text transform="matrix(1, 0, -0, 1, 880.994, 87.932)">
      <tspan x="-10.011" y="5.08" font-family="ArialMT" font-size="18" fill="#CBCBCB">14</tspan>
    </text>
    <text transform="matrix(1, 0, -0, 1, 853.359, 73.775)">
      <tspan x="-10.011" y="5.08" font-family="ArialMT" font-size="18" fill="#000000">15</tspan>
    </text>
    <text transform="matrix(1, 0, -0, 1, 793.799, 172.22)">
      <tspan x="-14.511" y="5.08" font-family="ArialMT" font-size="18" fill="#0000FF">J24</tspan>
    </text>
    <text transform="matrix(1, 0, -0, 1, 769.56, 217.178)">
      <tspan x="-14.511" y="5.524" font-family="ArialMT" font-size="18" fill="#0000FF">J26</tspan>
    </text>
    <text transform="matrix(1, 0, -0, 1, 825.31, 264.333)">
      <tspan x="-10.011" y="5.08" font-family="ArialMT" font-size="18" fill="#000000">28</tspan>
    </text>
    <text transform="matrix(1, 0, -0, 1, 723.532, 157.572)">
      <tspan x="-14.511" y="4.862" font-family="ArialMT" font-size="18" fill="#0000FF">J30</tspan>
    </text>
    <text transform="matrix(1, 0, -0, 1, 516.078, 214.674)">
      <tspan x="-10.011" y="5.08" font-family="ArialMT" font-size="18" fill="#000000">40</tspan>
    </text>
    <text transform="matrix(1, 0, -0, 1, 769.56, 270.053)">
      <tspan x="-19.516" y="5.401" font-family="ArialMT" font-size="18" fill="#0000FF">J105</tspan>
    </text>
    <text transform="matrix(1, 0, -0, 1, 830.31, 302)">
      <tspan x="-5.005" y="5.08" font-family="ArialMT" font-size="18" fill="#000000">1</tspan>
    </text>
    <text transform="matrix(1, 0, -0, 1, 857.731, 301.009)">
      <tspan x="-5.005" y="5.08" font-family="ArialMT" font-size="18" fill="#000000">2</tspan>
    </text>
    <text transform="matrix(1, 0, -0, 1, 864.994, 264.333)">
      <tspan x="-5.005" y="5.08" font-family="ArialMT" font-size="18" fill="#000000">3</tspan>
    </text>
    <text transform="matrix(1, 0, -0, 1, 887.793, 291.123)">
      <tspan x="-5.005" y="5.08" font-family="ArialMT" font-size="18" fill="#000000">4</tspan>
    </text>
    <text transform="matrix(1, 0, -0, 1, 898.793, 260.69)">
      <tspan x="-5.005" y="5.08" font-family="ArialMT" font-size="18" fill="#000000">5</tspan>
    </text>
    <text transform="matrix(1, 0, -0, 1, 893.27, 234.343)">
      <tspan x="-5.005" y="5.08" font-family="ArialMT" font-size="18" fill="#000000">6</tspan>
    </text>
    <text transform="matrix(1, 0, -0, 1, 857.731, 234.343)">
      <tspan x="-5.005" y="5.08" font-family="ArialMT" font-size="18" fill="#000000">7</tspan>
    </text>
    <text transform="matrix(1, 0, -0, 1, 884.652, 199.47)">
      <tspan x="-5.005" y="5.08" font-family="ArialMT" font-size="18" fill="#000000">8</tspan>
    </text>
    <text transform="matrix(1, 0, -0, 1, 853.359, 199.47)">
      <tspan x="-5.005" y="5.08" font-family="ArialMT" font-size="18" fill="#000000">9</tspan>
    </text>
    <text transform="matrix(1, 0, -0, 1, 889.652, 164.344)">
      <tspan x="-10.011" y="5.08" font-family="ArialMT" font-size="18" fill="#000000">10</tspan>
    </text>
    <text transform="matrix(1, 0, -0, 1, 896.793, 126.614)">
      <tspan x="-10.011" y="5.08" font-family="ArialMT" font-size="18" fill="#000000">12</tspan>
    </text>
    <text transform="matrix(1, 0, -0, 1, 858.359, 126.614)">
      <tspan x="-10.011" y="5.08" font-family="ArialMT" font-size="18" fill="#000000">13</tspan>
    </text>
    <text transform="matrix(1, 0, -0, 1, 812.31, 59.573)">
      <tspan x="-10.011" y="5.08" font-family="ArialMT" font-size="18" fill="#000000">16</tspan>
    </text>
    <text transform="matrix(1, 0, -0, 1, 836.185, 107.659)">
      <tspan x="-10.011" y="5.08" font-family="ArialMT" font-size="18" fill="#000000">17</tspan>
    </text>
    <text transform="matrix(1, 0, -0, 1, 775.18, 59.573)">
      <tspan x="-10.011" y="5.08" font-family="ArialMT" font-size="18" fill="#000000">18</tspan>
    </text>
    <text transform="matrix(1, 0, -0, 1, 804.71, 95.615)">
      <tspan x="-10.011" y="5.08" font-family="ArialMT" font-size="18" fill="#000000">19</tspan>
    </text>
    <text transform="matrix(1, 0, -0, 1, 748.56, 76.664)">
      <tspan x="-10.011" y="5.08" font-family="ArialMT" font-size="18" fill="#CCCCCC">20</tspan>
    </text>
    <text transform="matrix(1, 0, -0, 1, 778.833, 109.772)">
      <tspan x="-10.011" y="5.08" font-family="ArialMT" font-size="18" fill="#CBCCCC">21</tspan>
    </text>
    <text transform="matrix(1, 0, -0, 1, 736.063, 113.631)">
      <tspan x="-10.011" y="5.08" font-family="ArialMT" font-size="18" fill="#000000">22</tspan>
    </text>
    <text transform="matrix(1, 0, -0, 1, 769.56, 139.569)">
      <tspan x="-10.011" y="5.08" font-family="ArialMT" font-size="18" fill="#000000">23</tspan>
    </text>
    <text transform="matrix(1, 0, -0, 1, 815.185, 208.642)">
      <tspan x="-10.011" y="5.08" font-family="ArialMT" font-size="18" fill="#000000">25</tspan>
    </text>
    <text transform="matrix(1, 0, -0, 1, 777.28, 243.736)">
      <tspan x="-10.011" y="5.08" font-family="ArialMT" font-size="18" fill="#000000">27</tspan>
    </text>
    <text transform="matrix(1, 0, -0, 1, 749.78, 192.834)">
      <tspan x="-10.011" y="5.08" font-family="ArialMT" font-size="18" fill="#000000">29</tspan>
    </text>
    <text transform="matrix(1, 0, -0, 1, 731.063, 295.486)">
      <tspan x="-15.016" y="5.08" font-family="ArialMT" font-size="18" fill="#000000">103</tspan>
    </text>
    <text transform="matrix(1, 0, -0, 1, 757.71, 334.648)">
      <tspan x="-15.016" y="5.08" font-family="ArialMT" font-size="18" fill="#000000">104</tspan>
    </text>
    <text transform="matrix(1, 0, -0, 1, 789.326, 314.559)">
      <tspan x="-15.016" y="5.08" font-family="ArialMT" font-size="18" fill="#000000">106</tspan>
    </text>
    <text transform="matrix(1, 0, -0, 1, 721.214, 212.503)">
      <tspan x="-10.011" y="5.08" font-family="ArialMT" font-size="18" fill="#000000">31</tspan>
    </text>
    <text transform="matrix(1, 0, -0, 1, 689.827, 225.929)">
      <tspan x="-10.011" y="5.08" font-family="ArialMT" font-size="18" fill="#000000">32</tspan>
    </text>
    <text transform="matrix(1, 0, -0, 1, 677.691, 183.685)">
      <tspan x="-10.011" y="5.08" font-family="ArialMT" font-size="18" fill="#000000">33</tspan>
    </text>
    <text transform="matrix(1, 0, -0, 1, 660.865, 228.929)">
      <tspan x="-10.011" y="5.08" font-family="ArialMT" font-size="18" fill="#000000">34</tspan>
    </text>
    <text transform="matrix(1, 0, -0, 1, 602.041, 69.271)">
      <tspan x="-10.011" y="5.08" font-family="ArialMT" font-size="18" fill="#000000">50</tspan>
    </text>
    <text transform="matrix(1, 0, -0, 1, 595.571, 33.131)">
      <tspan x="-10.011" y="5.08" font-family="ArialMT" font-size="18" fill="#000000">51</tspan>
    </text>
    <text transform="matrix(1, 0, -0, 1, 558.08, 16.291)">
      <tspan x="-10.011" y="5.08" font-family="ArialMT" font-size="18" fill="#000000">52</tspan>
    </text>
    <text transform="matrix(1, 0, -0, 1, 527.827, 26.846)">
      <tspan x="-10.011" y="5.08" font-family="ArialMT" font-size="18" fill="#000000">53</tspan>
    </text>
    <text transform="matrix(1, 0, -0, 1, 487.827, 55.929)">
      <tspan x="-10.011" y="5.08" font-family="ArialMT" font-size="18" fill="#000000">54</tspan>
    </text>
    <text transform="matrix(1, 0, -0, 1, 452.278, 53.929)">
      <tspan x="-10.011" y="5.08" font-family="ArialMT" font-size="18" fill="#000000">55</tspan>
    </text>
    <text transform="matrix(1, 0, -0, 1, 420.022, 52.929)">
      <tspan x="-10.011" y="5.08" font-family="ArialMT" font-size="18" fill="#000000">56</tspan>
    </text>
    <text transform="matrix(1, 0, -0, 1, 375.418, 55.929)">
      <tspan x="-10.011" y="5.08" font-family="ArialMT" font-size="18" fill="#000000">57</tspan>
    </text>
    <text transform="matrix(1, 0, -0, 1, 399.022, 95.615)">
      <tspan x="-10.011" y="5.08" font-family="ArialMT" font-size="18" fill="#000000">49</tspan>
    </text>
    <text transform="matrix(1, 0, -0, 1, 354.418, 104.659)">
      <tspan x="-10.011" y="5.08" font-family="ArialMT" font-size="18" fill="#000000">48</tspan>
    </text>
    <text transform="matrix(1, 0, -0, 1, 297.827, 126.614)">
      <tspan x="-10.011" y="5.08" font-family="ArialMT" font-size="18" fill="#000000">47</tspan>
    </text>
    <text transform="matrix(1, 0, -0, 1, 637.419, 184.27)">
      <tspan x="-10.011" y="5.08" font-family="ArialMT" font-size="18" fill="#000000">35</tspan>
    </text>
    <text transform="matrix(1, 0, -0, 1, 625.827, 228.929)">
      <tspan x="-10.011" y="5.08" font-family="ArialMT" font-size="18" fill="#000000">36</tspan>
    </text>
    <text transform="matrix(1, 0, -0, 1, 586.541, 184.27)">
      <tspan x="-10.011" y="5.08" font-family="ArialMT" font-size="18" fill="#000000">37</tspan>
    </text>
    <text transform="matrix(1, 0, -0, 1, 675.827, 337.459)">
      <tspan x="-15.016" y="5.08" font-family="ArialMT" font-size="18" fill="#000000">102</tspan>
    </text>
    <text transform="matrix(1, 0, -0, 1, 644.827, 290.102)">
      <tspan x="-15.016" y="5.08" font-family="ArialMT" font-size="18" fill="#000000">100</tspan>
    </text>
    <text transform="matrix(1, 0, -0, 1, 637.419, 327.249)">
      <tspan x="-15.016" y="5.08" font-family="ArialMT" font-size="18" fill="#000000">101</tspan>
    </text>
    <text transform="matrix(1, 0, -0, 1, 595.571, 349.089)">
      <tspan x="-10.011" y="5.08" font-family="ArialMT" font-size="18" fill="#000000">98</tspan>
    </text>
    <text transform="matrix(1, 0, -0, 1, 584.041, 301.009)">
      <tspan x="-10.011" y="5.08" font-family="ArialMT" font-size="18" fill="#000000">99</tspan>
    </text>
    <text transform="matrix(1, 0, -0, 1, 550.582, 326.979)">
      <tspan x="-10.011" y="5.08" font-family="ArialMT" font-size="18" fill="#000000">97</tspan>
    </text>
    <text transform="matrix(1, 0, -0, 1, 548.827, 375.243)">
      <tspan x="-10.011" y="5.08" font-family="ArialMT" font-size="18" fill="#000000">96</tspan>
    </text>
    <text transform="matrix(1, 0, -0, 1, 508.827, 383.025)">
      <tspan x="-10.011" y="5.08" font-family="ArialMT" font-size="18" fill="#000000">94</tspan>
    </text>
    <text transform="matrix(1, 0, -0, 1, 518.827, 332.929)">
      <tspan x="-10.011" y="5.08" font-family="ArialMT" font-size="18" fill="#000000">95</tspan>
    </text>
    <text transform="matrix(1, -0, 0, 1, 485.827, 338.65)">
      <tspan x="-10.011" y="5.08" font-family="ArialMT" font-size="18" fill="#000000">93</tspan>
    </text>
    <text transform="matrix(1, 0, -0, 1, 456.609, 351.819)">
      <tspan x="-10.011" y="5.08" font-family="ArialMT" font-size="18" fill="#000000">92</tspan>
    </text>
    <text transform="matrix(1, 0, -0, 1, 582.08, 254.862)">
      <tspan x="-10.011" y="5.08" font-family="ArialMT" font-size="18" fill="#000000">38</tspan>
    </text>
    <text transform="matrix(1, 0, -0, 1, 550.582, 219.734)">
      <tspan x="-10.011" y="5.08" font-family="ArialMT" font-size="18" fill="#000000">39</tspan>
    </text>
    <text transform="matrix(1, 0, -0, 1, 323.827, 68.431)">
      <tspan x="-10.011" y="5.08" font-family="ArialMT" font-size="18" fill="#000000">58</tspan>
    </text>
    <text transform="matrix(1, 0, -0, 1, 323.827, 194.06)">
      <tspan x="-10.011" y="5.08" font-family="ArialMT" font-size="18" fill="#000000">45</tspan>
    </text>
    <text transform="matrix(1, 0, -0, 1, 354.418, 172.22)">
      <tspan x="-10.011" y="5.08" font-family="ArialMT" font-size="18" fill="#000000">43</tspan>
    </text>
    <text transform="matrix(1, 0, -0, 1, 361.827, 217.622)">
      <tspan x="-10.011" y="5.08" font-family="ArialMT" font-size="18" fill="#000000">44</tspan>
    </text>
    <text transform="matrix(1, 0, -0, 1, 424.087, 179.63)">
      <tspan x="-10.011" y="5.08" font-family="ArialMT" font-size="18" fill="#000000">41</tspan>
    </text>
    <text transform="matrix(1, 0, -0, 1, 424.087, 219.734)">
      <tspan x="-10.011" y="5.08" font-family="ArialMT" font-size="18" fill="#000000">42</tspan>
    </text>
    <text transform="matrix(1, 0, -0, 1, 280.827, 260.69)">
      <tspan x="-10.011" y="5.08" font-family="ArialMT" font-size="18" fill="#CBCBCB">82</tspan>
    </text>
    <text transform="matrix(1, 0, -0, 1, 278.827, 303.089)">
      <tspan x="-10.011" y="5.08" font-family="ArialMT" font-size="18" fill="#000000">83</tspan>
    </text>
    <text transform="matrix(1, 0, -0, 1, 262.674, 363.122)">
      <tspan x="-10.011" y="5.08" font-family="ArialMT" font-size="18" fill="#000000">84</tspan>
    </text>
    <text transform="matrix(1, 0, -0, 1, 249.1, 228.929)">
      <tspan x="-10.011" y="5.08" font-family="ArialMT" font-size="18" fill="#000000">81</tspan>
    </text>
    <text transform="matrix(1, 0, -0, 1, 220.674, 277.563)">
      <tspan x="-10.011" y="5.08" font-family="ArialMT" font-size="18" fill="#000000">80</tspan>
    </text>
    <text transform="matrix(1, 0, -0, 1, 221.674, 334.929)">
      <tspan x="-10.011" y="5.08" font-family="ArialMT" font-size="18" fill="#000000">79</tspan>
    </text>
    <text transform="matrix(1, 0, -0, 1, 194.827, 366.122)">
      <tspan x="-10.011" y="5.08" font-family="ArialMT" font-size="18" fill="#000000">77</tspan>
    </text>
    <text transform="matrix(1, 0, -0, 1, 173.827, 324.929)">
      <tspan x="-10.011" y="5.08" font-family="ArialMT" font-size="18" fill="#000000">78</tspan>
    </text>
    <text transform="matrix(1, 0, -0, 1, 146.783, 349.089)">
      <tspan x="-10.011" y="5.08" font-family="ArialMT" font-size="18" fill="#000000">76</tspan>
    </text>
    <text transform="matrix(1, 0, -0, 1, 270.1, 183.685)">
      <tspan x="-10.011" y="5.08" font-family="ArialMT" font-size="18" fill="#CBCBCB">46</tspan>
    </text>
    <text transform="matrix(1, 0, -0, 1, 301.827, 341.282)">
      <tspan x="-10.011" y="5.08" font-family="ArialMT" font-size="18" fill="#000000">85</tspan>
    </text>
    <text transform="matrix(1, 0, -0, 1, 318.827, 412.929)">
      <tspan x="-10.011" y="5.08" font-family="ArialMT" font-size="18" fill="#000000">86</tspan>
    </text>
    <text transform="matrix(1, 0, -0, 1, 331.418, 372.929)">
      <tspan x="-10.011" y="5.08" font-family="ArialMT" font-size="18" fill="#000000">87</tspan>
    </text>
    <text transform="matrix(1, 0, -0, 1, 381.022, 420.025)">
      <tspan x="-10.011" y="5.08" font-family="ArialMT" font-size="18" fill="#000000">88</tspan>
    </text>
    <text transform="matrix(1, 0, -0, 1, 361.827, 383.025)">
      <tspan x="-10.011" y="5.08" font-family="ArialMT" font-size="18" fill="#000000">89</tspan>
    </text>
    <text transform="matrix(1, 0, -0, 1, 402.022, 378.243)">
      <tspan x="-10.011" y="5.08" font-family="ArialMT" font-size="18" fill="#CBCBCB">90</tspan>
    </text>
    <text transform="matrix(1, 0, -0, 1, 435.609, 412.929)">
      <tspan x="-10.011" y="5.08" font-family="ArialMT" font-size="18" fill="#CBCBCB">91</tspan>
    </text>
    <text transform="matrix(1, 0, 0, 1, 641.425, 76.664)">
      <tspan x="-14.506" y="5.5" font-family="ArialMT" font-size="18" fill="#000000">A/B</tspan>
    </text>
  </g>
  <g id="Symbols">
    <g>
      <path d="M509.074,149.469 L507.18,149.469 L507.18,149.469 L507.18,173.35 L507.18,173.35 L509.074,173.35 L509.074,173.35 L509.074,149.469 L509.074,149.469 z" fill="#050000"/>
      <path d="M515.844,153.839 C514.486,153.839 513.514,154.957 513.31,155.566 L511.647,161.04 C511.314,162.212 512.81,162.701 513.167,161.556 L514.663,156.534 L515.526,156.534 L513.018,165.459 L515.41,165.459 L515.41,172.425 C515.41,173.613 517.196,173.606 517.196,172.425 L517.196,165.416 L518.103,165.416 L518.103,172.411 C518.103,173.613 519.898,173.613 519.898,172.411 L519.898,165.46 L522.294,165.46 L519.812,156.535 L520.635,156.535 L522.136,161.57 C522.489,162.665 523.998,162.222 523.654,161.04 L521.991,155.566 C521.812,154.944 521.025,153.84 519.66,153.84 L515.844,153.84 L515.844,153.839 z" fill="#050000"/>
      <path d="M517.65,153.43 C516.58,153.43 515.711,152.561 515.711,151.492 C515.711,150.418 516.58,149.549 517.65,149.549 C518.723,149.549 519.589,150.418 519.589,151.492 C519.59,152.561 518.723,153.43 517.65,153.43 z" fill="#050000"/>
      <path d="M498.807,153.396 C497.732,153.396 496.863,152.531 496.863,151.456 C496.863,150.388 497.732,149.519 498.807,149.519 C499.875,149.519 500.744,150.388 500.744,151.456 C500.744,152.531 499.875,153.396 498.807,153.396 z" fill="#050000"/>
      <path d="M501.429,172.205 C501.429,172.807 500.95,173.294 500.348,173.294 C499.748,173.294 499.259,172.807 499.259,172.205 L499.259,163.083 L498.347,163.083 L498.347,172.205 C498.347,172.807 497.858,173.294 497.259,173.294 C496.657,173.294 496.175,172.807 496.175,172.205 L496.168,156.478 L495.263,156.478 L495.263,162.276 C495.263,163.443 493.745,163.443 493.745,162.276 L493.745,156.351 C493.745,155.064 494.747,153.806 496.254,153.806 L501.396,153.799 C502.774,153.799 503.878,154.921 503.878,156.315 L503.878,162.276 C503.878,163.43 502.351,163.43 502.351,162.276 L502.351,156.478 L501.43,156.478 L501.43,172.205 L501.429,172.205 z" fill="#050000"/>
    </g>
    <g>
      <path d="M479.255,180.811 C481.163,180.811 482.713,179.262 482.713,177.351 L482.713,155.331 C482.713,153.421 481.164,151.877 479.255,151.877 L457.235,151.877 C455.325,151.877 453.778,153.421 453.778,155.331 L453.778,177.351 C453.778,179.262 455.325,180.811 457.235,180.811 L479.255,180.811 z" fill="#231F20"/>
      <path d="M457.235,152.46 C455.652,152.46 454.364,153.746 454.364,155.331 L454.364,177.351 C454.364,178.936 455.652,180.222 457.235,180.222 L479.255,180.222 C480.838,180.222 482.124,178.936 482.124,177.351 L482.124,155.331 C482.124,153.746 480.838,152.46 479.255,152.46 L457.235,152.46 L457.235,152.46 z" fill="#FFFFFF"/>
      <path d="M470.281,165.933 C471.923,165.933 473.255,164.599 473.255,162.96 C473.255,161.313 471.923,159.981 470.281,159.981 L465.895,159.973 L465.895,165.933 L470.281,165.933 z M470.219,156.314 C473.936,156.314 476.944,159.322 476.944,163.033 C476.944,166.751 473.936,169.757 470.219,169.757 L465.896,169.752 L465.896,176.134 L462.022,176.134 L462.022,156.314 L470.219,156.314 z" fill="#231F20"/>
    </g>
    <g>
      <path d="M853.803,16.453 C855.119,16.453 856.183,15.382 856.183,14.064 C856.183,12.748 855.119,11.684 853.803,11.684 C852.487,11.684 851.416,12.748 851.416,14.064 C851.416,15.382 852.487,16.453 853.803,16.453 z" fill="#000000"/>
      <path d="M849.776,16.847 C849.868,16.48 849.636,16.115 849.275,16.023 L847.29,15.545 C846.918,15.459 846.551,15.678 846.467,16.043 L844.798,22.953 C844.705,23.32 844.931,23.685 845.298,23.777 L847.29,24.255 C847.651,24.347 848.022,24.122 848.108,23.755 L849.776,16.847 z" fill="#000000"/>
      <path d="M858.943,41.418 C858.943,41.432 858.937,41.445 858.937,41.452 C858.937,41.756 859.185,42.002 859.487,42.002 C859.762,42.002 859.994,41.79 860.028,41.524 L864.03,19.827 C864.03,19.811 864.03,19.797 864.03,19.784 C864.03,19.489 863.789,19.241 863.487,19.241 C863.212,19.241 863,19.452 862.944,19.721 L858.943,41.418 z" fill="#000000"/>
      <path d="M845.636,39.996 C845.614,40.109 845.607,40.221 845.607,40.334 C845.607,41.263 846.355,42.009 847.283,42.009 C848.045,42.009 848.685,41.502 848.89,40.812 L851.77,28.888 L854.515,40.742 C854.69,41.475 855.353,42.009 856.133,42.009 C857.064,42.009 857.809,41.263 857.809,40.334 C857.809,40.206 857.796,40.087 857.773,39.967 L854.008,24.221 L854.323,22.833 L854.571,23.924 C854.797,24.636 855.443,24.706 855.443,24.706 L859.324,25.693 C859.401,25.706 859.479,25.713 859.556,25.713 C860.189,25.713 860.703,25.206 860.703,24.573 C860.703,24.03 860.332,23.572 859.824,23.453 L856.464,22.607 L855.543,18.86 C855.106,16.768 853.107,16.818 853.107,16.818 C851.164,16.768 850.677,18.813 850.677,18.813 L845.636,39.996 z" fill="#000000"/>
    </g>
    <path d="M651.977,410.139 L651.977,404.007 L654.092,404.007 C654.975,404.007 655.131,404.587 655.237,404.7 C655.566,405.016 655.785,405.208 656.253,405.208 L658.601,405.208 L658.601,400.002 L656.253,400.002 C655.785,400.002 655.566,399.81 655.237,399.485 C655.131,399.388 654.975,398.801 654.092,398.801 L650.855,398.801 L650.855,409.419 L649.374,408.452 L636.327,416.875 L639.386,416.875 L639.386,427.057 L646.793,427.057 L646.793,418.973 L651.941,418.973 L651.941,426.874 L659.35,426.874 L659.35,416.875 L662.398,416.875 L651.977,410.139 z" fill="#000000"/>
    <g>
      <path d="M841.319,547.855 C843.227,547.855 844.777,546.305 844.777,544.395 L844.777,522.375 C844.777,520.465 843.228,518.92 841.319,518.92 L819.299,518.92 C817.389,518.92 815.842,520.465 815.842,522.375 L815.842,544.395 C815.842,546.305 817.389,547.855 819.299,547.855 L841.319,547.855 z" fill="#231F20"/>
      <path d="M819.299,519.504 C817.716,519.504 816.428,520.79 816.428,522.375 L816.428,544.395 C816.428,545.98 817.716,547.266 819.299,547.266 L841.319,547.266 C842.902,547.266 844.188,545.98 844.188,544.395 L844.188,522.375 C844.188,520.79 842.902,519.504 841.319,519.504 L819.299,519.504 L819.299,519.504 z" fill="#FFFFFF"/>
      <path d="M832.346,532.977 C833.987,532.977 835.319,531.643 835.319,530.003 C835.319,528.357 833.987,527.024 832.346,527.024 L827.959,527.017 L827.959,532.977 L832.346,532.977 z M832.283,523.358 C836,523.358 839.008,526.366 839.008,530.077 C839.008,533.795 836,536.801 832.283,536.801 L827.96,536.796 L827.96,543.178 L824.086,543.178 L824.086,523.358 L832.283,523.358 z" fill="#231F20"/>
    </g>
    <g>
      <path d="M686.695,278.162 L684.8,278.162 L684.8,278.162 L684.8,302.043 L684.8,302.043 L686.695,302.043 L686.695,302.043 L686.695,278.162 L686.695,278.162 z" fill="#000000"/>
      <path d="M693.465,282.532 C692.107,282.532 691.134,283.65 690.931,284.258 L689.268,289.732 C688.935,290.905 690.431,291.393 690.788,290.248 L692.284,285.227 L693.146,285.227 L690.639,294.152 L693.031,294.152 L693.031,301.117 C693.031,302.305 694.817,302.299 694.817,301.117 L694.817,294.109 L695.724,294.109 L695.724,301.104 C695.724,302.305 697.518,302.305 697.518,301.104 L697.518,294.152 L699.915,294.152 L697.432,285.227 L698.256,285.227 L699.757,290.262 C700.11,291.357 701.619,290.914 701.275,289.733 L699.612,284.259 C699.433,283.637 698.645,282.532 697.281,282.532 L693.465,282.532 L693.465,282.532 z" fill="#000000"/>
      <path d="M695.271,282.122 C694.201,282.122 693.332,281.253 693.332,280.185 C693.332,279.11 694.201,278.241 695.271,278.241 C696.344,278.241 697.21,279.11 697.21,280.185 C697.211,281.253 696.344,282.122 695.271,282.122 z" fill="#000000"/>
      <path d="M676.428,282.088 C675.353,282.088 674.484,281.224 674.484,280.149 C674.484,279.08 675.353,278.212 676.428,278.212 C677.496,278.212 678.365,279.08 678.365,280.149 C678.364,281.224 677.495,282.088 676.428,282.088 z" fill="#000000"/>
      <path d="M679.05,300.898 C679.05,301.5 678.57,301.986 677.968,301.986 C677.369,301.986 676.88,301.5 676.88,300.898 L676.88,291.776 L675.968,291.776 L675.968,300.898 C675.968,301.5 675.479,301.986 674.88,301.986 C674.278,301.986 673.796,301.5 673.796,300.898 L673.789,285.17 L672.884,285.17 L672.884,290.968 C672.884,292.136 671.365,292.136 671.365,290.968 L671.365,285.044 C671.365,283.756 672.368,282.498 673.875,282.498 L679.016,282.491 C680.395,282.491 681.499,283.614 681.499,285.008 L681.499,290.968 C681.499,292.122 679.972,292.122 679.972,290.968 L679.972,285.17 L679.05,285.17 L679.05,300.898 L679.05,300.898 z" fill="#000000"/>
    </g>
    <g>
      <path d="M828.229,149.469 L826.334,149.469 L826.334,149.469 L826.334,173.35 L826.334,173.35 L828.229,173.35 L828.229,173.35 L828.229,149.469 L828.229,149.469 z" fill="#000000"/>
      <path d="M834.999,153.839 C833.641,153.839 832.668,154.957 832.465,155.565 L830.802,161.039 C830.469,162.212 831.965,162.7 832.322,161.555 L833.818,156.534 L834.68,156.534 L832.173,165.459 L834.565,165.459 L834.565,172.424 C834.565,173.612 836.351,173.606 836.351,172.424 L836.351,165.416 L837.258,165.416 L837.258,172.411 C837.258,173.612 839.052,173.612 839.052,172.411 L839.052,165.459 L841.449,165.459 L838.966,156.534 L839.79,156.534 L841.291,161.569 C841.644,162.664 843.153,162.221 842.809,161.04 L841.146,155.566 C840.967,154.944 840.179,153.839 838.815,153.839 L834.999,153.839 L834.999,153.839 z" fill="#000000"/>
      <path d="M836.805,153.429 C835.735,153.429 834.866,152.56 834.866,151.492 C834.866,150.417 835.735,149.548 836.805,149.548 C837.878,149.548 838.744,150.417 838.744,151.492 C838.745,152.56 837.878,153.429 836.805,153.429 z" fill="#000000"/>
      <path d="M817.962,153.395 C816.887,153.395 816.018,152.531 816.018,151.456 C816.018,150.387 816.887,149.519 817.962,149.519 C819.03,149.519 819.899,150.387 819.899,151.456 C819.898,152.531 819.029,153.395 817.962,153.395 z" fill="#000000"/>
      <path d="M820.584,172.205 C820.584,172.807 820.104,173.293 819.502,173.293 C818.903,173.293 818.414,172.807 818.414,172.205 L818.414,163.083 L817.502,163.083 L817.502,172.205 C817.502,172.807 817.013,173.293 816.414,173.293 C815.812,173.293 815.33,172.807 815.33,172.205 L815.323,156.477 L814.418,156.477 L814.418,162.275 C814.418,163.443 812.899,163.443 812.899,162.275 L812.899,156.351 C812.899,155.063 813.902,153.805 815.409,153.805 L820.55,153.798 C821.929,153.798 823.033,154.921 823.033,156.315 L823.033,162.275 C823.033,163.429 821.506,163.429 821.506,162.275 L821.506,156.477 L820.584,156.477 L820.584,172.205 L820.584,172.205 z" fill="#000000"/>
    </g>
    <path d="M987.172,356.359 L978.407,356.359 L981.297,349.212 L984.282,349.212 L987.172,356.359 z M992.066,349.212 L992.066,346.569 L972.876,346.569 L972.876,349.212 L977.72,349.212 L974.837,356.359 L967.69,356.359 L967.69,359 L973.76,359 L970.383,367.323 L973.663,367.323 L977.04,359 L987.954,359 L991.309,367.323 L994.589,367.323 L991.234,359 L997.254,359 L997.254,356.359 L990.157,356.359 L987.267,349.212 L992.066,349.212 z" fill="#000000"/>
    <g>
      <path d="M1009.462,346.796 C1010.81,346.734 1011.853,345.606 1011.792,344.279 C1011.73,342.955 1010.586,341.929 1009.239,341.992 C1007.894,342.055 1006.85,343.182 1006.912,344.506 C1006.974,345.833 1008.118,346.859 1009.462,346.796 z" fill="#000000"/>
      <path d="M1017.067,367.46 L1012.969,356.872 L1012.568,348.263 C1012.516,347.136 1011.373,347.239 1011.373,347.239 L1007.696,347.41 L1006.724,347.455 C1006.724,347.455 1006.529,347.437 1006.143,347.778 L1003.509,349.459 L1000.554,346.806 C1000.068,346.288 999.252,346.249 998.727,346.728 C998.193,347.207 998.201,348.029 998.687,348.554 L1002.457,351.935 C1002.712,352.18 1003.059,352.338 1003.439,352.321 C1003.72,352.308 1003.977,352.205 1004.184,352.05 L1006.499,350.654 L1006.792,356.968 L1003.669,368.063 C1003.445,369.025 1004.067,369.976 1005.051,370.187 C1006.028,370.396 1006.994,369.783 1007.208,368.821 L1009.943,359.243 L1013.614,368.545 C1013.917,369.49 1014.937,370.004 1015.888,369.703 C1016.841,369.402 1017.371,368.398 1017.067,367.46 z" fill="#000000"/>
      <path d="M998.104,349.795 C998.231,349.914 998.44,349.906 998.563,349.773 L998.605,349.737 C998.722,349.602 998.72,349.398 998.584,349.279 L997.847,348.6 C997.711,348.479 997.502,348.489 997.379,348.617 L997.344,348.66 C997.22,348.793 997.224,348.995 997.358,349.114 L998.104,349.795 z" fill="#000000"/>
      <path d="M1004.476,341.418 L1000.518,346.044 L1001.046,346.526 L1005.508,342.367 L1008.464,339.422 C1008.58,339.282 1008.653,339.102 1008.644,338.909 C1008.624,338.485 1008.262,338.154 1007.835,338.169 C1007.626,338.175 1007.45,338.262 1007.313,338.389 L1004.476,341.418 z" fill="#000000"/>
    </g>
    <g>
      <path d="M38.393,257.042 L32.021,258.772 L28.483,256.322 L27.253,256.622 L30.757,259.082 L11.442,264.372 L12.857,269.562 L32.241,264.282 C39.753,262.042 38.384,257.042 38.384,257.042" fill="#000000"/>
      <path d="M21.642,270.302 C21.664,269.862 21.748,269.452 21.889,269.062 L13.15,271.492 L13.43,272.572 L21.642,270.302 z" fill="#000000"/>
      <path d="M29.579,268.112 C29.342,267.762 29.062,267.452 28.744,267.182 L43.324,263.162 L43.324,264.322 L29.579,268.112 z" fill="#000000"/>
      <path d="M25.972,271.942 C25.187,271.942 24.553,271.312 24.553,270.522 C24.553,269.742 25.186,269.102 25.972,269.102 C26.759,269.102 27.394,269.742 27.394,270.522 C27.394,271.312 26.76,271.942 25.972,271.942 z M11.742,280.652 C12.433,280.652 13.092,280.492 13.678,280.222 C14.288,279.952 14.968,279.782 15.684,279.782 C16.395,279.782 17.08,279.952 17.68,280.222 C18.276,280.492 18.935,280.652 19.627,280.652 C20.318,280.652 20.977,280.492 21.571,280.222 C22.176,279.952 22.858,279.782 23.569,279.782 C24.282,279.782 24.965,279.952 25.573,280.222 C26.161,280.492 26.827,280.652 27.514,280.652 C28.203,280.652 28.864,280.492 29.455,280.222 C30.065,279.952 30.75,279.782 31.461,279.782 C32.169,279.782 32.854,279.952 33.457,280.222 C34.049,280.492 34.714,280.652 35.401,280.652 C36.091,280.652 36.751,280.492 37.347,280.222 C37.948,279.952 38.633,279.782 39.344,279.782 C40.055,279.782 40.739,279.952 41.345,280.222 C41.936,280.492 42.602,280.652 43.286,280.652 L43.332,269.072 L27.387,273.472 C28.485,272.942 29.249,271.822 29.249,270.522 C29.249,268.712 27.784,267.242 25.972,267.242 C24.167,267.242 22.697,268.712 22.697,270.522 C22.697,272.332 24.167,273.802 25.972,273.802 C26.082,273.802 26.19,273.772 26.296,273.772 L11.763,277.772 L11.742,280.652 z" fill="#000000"/>
    </g>
    <g>
      <path d="M1022.844,365.514 C1023.37,365.514 1023.87,365.396 1024.32,365.191 C1024.779,364.983 1025.299,364.857 1025.842,364.857 C1026.387,364.857 1026.907,364.983 1027.365,365.191 C1027.815,365.396 1028.316,365.514 1028.842,365.514 C1029.367,365.514 1029.87,365.396 1030.318,365.191 C1030.784,364.983 1031.305,364.857 1031.842,364.857 C1032.384,364.857 1032.905,364.983 1033.365,365.191 C1033.813,365.396 1034.321,365.514 1034.842,365.514 C1035.367,365.514 1035.869,365.396 1036.321,365.191 C1036.782,364.983 1037.301,364.857 1037.84,364.857 C1038.383,364.857 1038.903,364.983 1039.364,365.191 C1039.811,365.396 1040.32,365.514 1040.845,365.514 C1041.364,365.514 1041.872,365.396 1042.32,365.191 C1042.781,364.983 1043.301,364.857 1043.844,364.857 C1044.383,364.857 1044.901,364.983 1045.362,365.191 C1045.816,365.396 1046.318,365.514 1046.844,365.514 L1046.844,363.298 C1046.318,363.298 1045.817,363.178 1045.362,362.981 C1044.901,362.767 1044.383,362.64 1043.844,362.64 C1043.301,362.64 1042.781,362.767 1042.32,362.981 C1041.872,363.178 1041.364,363.298 1040.845,363.298 C1040.32,363.298 1039.811,363.178 1039.364,362.981 C1038.903,362.767 1038.383,362.64 1037.84,362.64 C1037.301,362.64 1036.782,362.767 1036.321,362.981 C1035.869,363.178 1035.368,363.298 1034.842,363.298 C1034.321,363.298 1033.813,363.178 1033.365,362.981 C1032.905,362.767 1032.384,362.64 1031.842,362.64 C1031.305,362.64 1030.785,362.767 1030.318,362.981 C1029.87,363.178 1029.367,363.298 1028.842,363.298 C1028.316,363.298 1027.815,363.178 1027.365,362.981 C1026.907,362.767 1026.387,362.64 1025.842,362.64 C1025.299,362.64 1024.779,362.767 1024.32,362.981 C1023.87,363.178 1023.37,363.298 1022.844,363.298 L1022.844,365.514 z" fill="#000000"/>
      <path d="M1026.32,359.246 C1024.744,359.246 1023.465,357.962 1023.465,356.384 C1023.465,354.807 1024.744,353.528 1026.32,353.528 C1027.899,353.528 1029.176,354.807 1029.176,356.384 C1029.176,357.962 1028.011,359.246 1026.32,359.246 z" fill="#000000"/>
      <path d="M1042.948,360.855 C1042.727,360.908 1042.518,360.985 1042.32,361.074 C1041.872,361.277 1041.364,361.398 1040.845,361.398 C1040.32,361.398 1039.811,361.277 1039.364,361.074 C1038.903,360.866 1038.383,360.734 1037.84,360.734 C1037.301,360.734 1036.782,360.866 1036.321,361.074 C1035.868,361.277 1035.367,361.398 1034.841,361.398 C1034.321,361.398 1033.813,361.277 1033.365,361.074 C1032.904,360.866 1032.384,360.734 1031.841,360.734 C1031.305,360.734 1030.784,360.866 1030.317,361.074 C1029.87,361.277 1029.367,361.398 1028.841,361.398 C1028.459,361.398 1028.09,361.332 1027.742,361.223 L1032.505,352.627 L1026.966,351.616 C1026.154,351.461 1025.563,350.822 1025.563,350.004 C1025.563,349.101 1026.297,348.379 1027.193,348.379 C1027.259,348.379 1027.318,348.379 1027.38,348.384 L1035.935,349.943 C1036.536,350.08 1037.331,350.96 1036.878,352.04 C1036.853,352.099 1036.83,352.155 1036.806,352.214 L1034.572,356.247 L1042.948,360.855 z" fill="#000000"/>
    </g>
    <g>
      <path d="M634.868,63.947 L641.845,50.58 L648.827,63.947 L634.868,63.947 z M654.876,63.947 L641.845,39.004 L628.82,63.947 L626.064,63.947 L626.064,65.744 L657.418,65.744 L657.418,63.947 L654.876,63.947 z" fill="#000000"/>
      <path d="M621.335,56.382 L626.097,47.259 L630.862,56.382 L621.335,56.382 z M634.99,56.382 L626.097,39.359 L617.208,56.382 L615.327,56.382 L615.327,57.608 L636.725,57.608 L636.725,56.382 L634.99,56.382 z" fill="#000000"/>
      <path d="M646.652,47.901 L650.631,40.278 L654.612,47.901 L646.652,47.901 z M658.062,47.901 L650.631,33.677 L643.203,47.901 L641.632,47.901 L641.632,48.926 L659.511,48.926 L659.511,47.901 L658.062,47.901 z" fill="#000000"/>
    </g>
    <g>
      <path d="M852.06,136.483 C852.977,136.483 853.715,135.735 853.715,134.828 C853.715,133.91 852.977,133.172 852.06,133.172 C851.147,133.172 850.404,133.91 850.404,134.828 C850.404,135.735 851.147,136.483 852.06,136.483" fill="#030000"/>
      <path d="M860.112,148.804 C860.375,149.234 860.983,149.409 861.44,149.137 C861.895,148.861 862.033,148.292 861.773,147.814 L858.95,142.938 C858.775,142.645 858.467,142.481 858.15,142.47 L854.009,142.47 L853.969,141.22 L856.977,141.22 C857.387,141.196 857.724,140.883 857.724,140.463 C857.724,140.048 857.398,139.725 856.977,139.71 L853.881,139.71 L853.775,138.29 C853.714,137.42 852.969,136.737 852.089,136.784 C851.204,136.834 850.536,137.597 850.578,138.475 L850.869,143.501 C850.941,144.378 851.679,145.008 852.554,145.004 L857.92,145.004 L860.112,148.804 z" fill="#030000"/>
      <path d="M853.124,150.694 C850.409,150.694 848.206,148.497 848.206,145.775 C848.206,144.285 848.882,142.958 849.932,142.055 L849.842,140.518 C848.084,141.615 846.903,143.551 846.903,145.775 C846.903,149.209 849.686,151.997 853.124,151.997 C855.655,151.997 857.818,150.474 858.79,148.306 L857.915,146.791 C857.448,149.014 855.487,150.694 853.124,150.694" fill="#030000"/>
    </g>
    <g>
      <path d="M417.678,155.307 C418.596,155.307 419.333,154.56 419.333,153.652 C419.333,152.734 418.596,151.997 417.678,151.997 C416.766,151.997 416.023,152.734 416.023,153.652 C416.023,154.56 416.766,155.307 417.678,155.307" fill="#000000"/>
      <path d="M425.731,167.628 C425.993,168.059 426.601,168.233 427.058,167.961 C427.514,167.686 427.651,167.116 427.392,166.638 L424.568,161.762 C424.394,161.47 424.086,161.305 423.769,161.295 L419.627,161.295 L419.588,160.045 L422.596,160.045 C423.006,160.02 423.343,159.708 423.343,159.288 C423.343,158.872 423.016,158.549 422.596,158.535 L419.5,158.535 L419.393,157.115 C419.333,156.244 418.588,155.562 417.708,155.609 C416.822,155.659 416.154,156.422 416.197,157.299 L416.487,162.325 C416.559,163.203 417.298,163.833 418.172,163.828 L423.538,163.828 L425.731,167.628 z" fill="#000000"/>
      <path d="M418.742,169.519 C416.028,169.519 413.825,167.321 413.825,164.6 C413.825,163.11 414.5,161.782 415.55,160.88 L415.46,159.342 C413.702,160.44 412.522,162.375 412.522,164.6 C412.522,168.033 415.305,170.821 418.742,170.821 C421.273,170.821 423.436,169.298 424.409,167.131 L423.533,165.615 C423.066,167.839 421.106,169.519 418.742,169.519" fill="#000000"/>
    </g>
    <g>
      <path d="M827.966,115.512 C828.883,115.512 829.621,114.764 829.621,113.857 C829.621,112.939 828.883,112.201 827.966,112.201 C827.053,112.201 826.31,112.939 826.31,113.857 C826.31,114.764 827.053,115.512 827.966,115.512" fill="#000000"/>
      <path d="M836.019,127.833 C836.281,128.263 836.889,128.438 837.346,128.166 C837.801,127.89 837.939,127.321 837.679,126.843 L834.856,121.967 C834.681,121.674 834.374,121.51 834.056,121.5 L829.915,121.5 L829.875,120.249 L832.883,120.249 C833.293,120.225 833.631,119.912 833.631,119.492 C833.631,119.077 833.304,118.754 832.883,118.739 L829.788,118.739 L829.681,117.319 C829.62,116.449 828.875,115.766 827.995,115.813 C827.11,115.864 826.442,116.626 826.485,117.504 L826.775,122.53 C826.847,123.407 827.585,124.038 828.46,124.033 L833.826,124.033 L836.019,127.833 z" fill="#000000"/>
      <path d="M829.03,129.723 C826.315,129.723 824.112,127.526 824.112,124.805 C824.112,123.314 824.788,121.987 825.838,121.084 L825.748,119.547 C823.99,120.644 822.81,122.58 822.81,124.805 C822.81,128.238 825.592,131.026 829.03,131.026 C831.561,131.026 833.724,129.503 834.696,127.335 L833.821,125.82 C833.354,128.043 831.393,129.723 829.03,129.723" fill="#000000"/>
    </g>
    <g>
      <path d="M545.483,230.964 C546.401,230.964 547.138,230.217 547.138,229.309 C547.138,228.391 546.401,227.654 545.483,227.654 C544.571,227.654 543.828,228.391 543.828,229.309 C543.828,230.217 544.571,230.964 545.483,230.964" fill="#000000"/>
      <path d="M553.536,243.285 C553.798,243.716 554.406,243.89 554.863,243.618 C555.319,243.343 555.456,242.773 555.197,242.295 L552.373,237.42 C552.199,237.127 551.891,236.962 551.573,236.952 L547.432,236.952 L547.393,235.702 L550.401,235.702 C550.811,235.677 551.148,235.365 551.148,234.945 C551.148,234.529 550.821,234.206 550.401,234.192 L547.305,234.192 L547.198,232.772 C547.138,231.901 546.393,231.219 545.512,231.266 C544.627,231.316 543.959,232.079 544.002,232.956 L544.292,237.982 C544.364,238.86 545.103,239.49 545.977,239.485 L551.343,239.485 L553.536,243.285 z" fill="#000000"/>
      <path d="M546.548,245.176 C543.833,245.176 541.63,242.978 541.63,240.257 C541.63,238.767 542.305,237.439 543.355,236.537 L543.265,234.999 C541.507,236.097 540.327,238.032 540.327,240.257 C540.327,243.69 543.109,246.478 546.548,246.478 C549.078,246.478 551.241,244.955 552.214,242.788 L551.339,241.272 C550.871,243.496 548.911,245.176 546.548,245.176" fill="#000000"/>
    </g>
    <g>
      <path d="M811.982,218.988 C812.9,218.988 813.638,218.24 813.638,217.333 C813.638,216.415 812.9,215.678 811.982,215.678 C811.07,215.678 810.327,216.415 810.327,217.333 C810.327,218.24 811.07,218.988 811.982,218.988" fill="#000100"/>
      <path d="M820.035,231.309 C820.298,231.739 820.905,231.914 821.363,231.642 C821.818,231.367 821.956,230.797 821.696,230.319 L818.873,225.443 C818.698,225.151 818.39,224.986 818.073,224.976 L813.932,224.976 L813.892,223.726 L816.9,223.726 C817.31,223.701 817.647,223.388 817.647,222.968 C817.647,222.553 817.32,222.23 816.9,222.216 L813.804,222.216 L813.697,220.796 C813.637,219.925 812.892,219.242 812.012,219.29 C811.126,219.34 810.459,220.103 810.501,220.98 L810.792,226.006 C810.864,226.883 811.602,227.514 812.476,227.509 L817.842,227.509 L820.035,231.309 z" fill="#000100"/>
      <path d="M813.047,233.199 C810.332,233.199 808.129,231.002 808.129,228.281 C808.129,226.791 808.804,225.463 809.854,224.561 L809.764,223.023 C808.006,224.121 806.826,226.056 806.826,228.281 C806.826,231.714 809.609,234.502 813.047,234.502 C815.577,234.502 817.74,232.979 818.713,230.811 L817.838,229.296 C817.37,231.519 815.41,233.199 813.047,233.199" fill="#000100"/>
    </g>
    <g>
      <path d="M584.197,158.242 C585.115,158.242 585.852,157.494 585.852,156.587 C585.852,155.669 585.115,154.931 584.197,154.931 C583.285,154.931 582.542,155.669 582.542,156.587 C582.542,157.494 583.285,158.242 584.197,158.242" fill="#000000"/>
      <path d="M592.25,170.563 C592.512,170.993 593.12,171.168 593.577,170.896 C594.032,170.62 594.17,170.051 593.91,169.573 L591.087,164.697 C590.912,164.404 590.605,164.24 590.287,164.23 L586.146,164.23 L586.106,162.979 L589.115,162.979 C589.525,162.955 589.862,162.642 589.862,162.222 C589.862,161.807 589.535,161.484 589.115,161.469 L586.019,161.469 L585.912,160.049 C585.851,159.179 585.106,158.496 584.226,158.543 C583.341,158.593 582.673,159.356 582.716,160.234 L583.006,165.26 C583.078,166.137 583.816,166.768 584.691,166.763 L590.057,166.763 L592.25,170.563 z" fill="#000000"/>
      <path d="M585.261,172.453 C582.546,172.453 580.344,170.256 580.344,167.535 C580.344,166.045 581.019,164.717 582.069,163.814 L581.979,162.277 C580.221,163.374 579.041,165.31 579.041,167.535 C579.041,170.968 581.823,173.756 585.261,173.756 C587.792,173.756 589.955,172.233 590.928,170.065 L590.052,168.55 C589.585,170.773 587.625,172.453 585.261,172.453" fill="#000000"/>
    </g>
    <g>
      <path d="M586.356,482.929 C586.892,482.929 587.32,482.492 587.32,481.956 L587.32,480.352 C587.32,479.812 586.892,479.384 586.356,479.384 L579.087,479.384 C578.55,479.384 578.123,479.812 578.123,480.352 L578.123,481.956 C578.123,482.492 578.55,482.929 579.087,482.929 L586.356,482.929 z M595.95,482.92 C596.485,482.92 596.918,482.485 596.918,481.948 L596.918,480.352 C596.918,479.812 596.485,479.384 595.95,479.384 L592.594,479.384 C592.061,479.384 591.633,479.812 591.633,480.352 L591.633,481.948 C591.633,482.485 592.061,482.92 592.594,482.92 L595.95,482.92 z M583.102,490.579 L577.981,490.579 C576.078,490.579 574.535,489.036 574.535,487.129 L574.527,481.109 C574.527,478.527 576.622,476.428 579.205,476.428 L595.115,476.428 C597.697,476.428 599.792,478.527 599.792,481.109 L599.796,489.611 L601.57,489.611 C602.099,489.611 602.523,490.039 602.523,490.579 L591.207,490.579 C591.085,488.641 589.122,487.104 587.152,487.104 C585.189,487.105 583.225,488.641 583.102,490.579" fill="#000000"/>
      <path d="M587.234,492.372 C587.871,492.372 588.389,491.856 588.389,491.224 C588.389,490.582 587.87,490.065 587.234,490.065 C586.597,490.065 586.078,490.582 586.078,491.224 C586.078,491.857 586.597,492.372 587.234,492.372 M602.541,493.821 L602.529,503.153 C602.529,503.832 601.978,504.39 601.292,504.39 L571.778,504.39 C571.092,504.39 570.541,503.831 570.541,503.153 L570.544,493.843 L577.052,493.843 L577.052,495.417 L572.649,495.424 C572.429,495.424 572.247,495.584 572.208,495.793 L572.208,501.985 C572.208,502.461 572.589,502.831 573.055,502.831 L586.051,502.831 C586.517,502.831 586.878,502.461 586.878,501.985 L586.882,495.866 C586.882,495.616 586.681,495.423 586.435,495.423 L581.525,495.416 L581.525,493.82 L586.666,493.82 C585.469,493.56 584.568,492.497 584.568,491.223 C584.568,489.751 585.76,488.557 587.232,488.557 C588.704,488.557 589.892,489.751 589.892,491.223 C589.892,492.497 588.999,493.56 587.798,493.82 L602.541,493.82 z" fill="#000000"/>
      <path d="M578.726,492.011 L579.843,492.011 L579.843,498.031 L581.13,498.031 C581.13,498.031 581.543,498.121 581.41,498.57 L579.65,500.717 C579.65,500.717 579.53,500.899 579.307,500.899 C579.092,500.899 578.965,500.717 578.965,500.717 L577.164,498.57 C577.027,498.121 577.443,498.031 577.443,498.031 L578.726,498.031 L578.726,492.011 z" fill="#000000"/>
    </g>
    <g>
      <path d="M155.915,267.027 L154.021,267.027 L154.021,267.027 L154.021,290.908 L154.021,290.908 L155.915,290.908 L155.915,290.908 L155.915,267.027 L155.915,267.027 z" fill="#CBCBCB"/>
      <path d="M162.685,271.397 C161.327,271.397 160.355,272.515 160.151,273.124 L158.488,278.598 C158.155,279.77 159.651,280.259 160.008,279.114 L161.504,274.092 L162.367,274.092 L159.859,283.017 L162.251,283.017 L162.251,289.983 C162.251,291.171 164.037,291.164 164.037,289.983 L164.037,282.974 L164.944,282.974 L164.944,289.969 C164.944,291.171 166.739,291.171 166.739,289.969 L166.739,283.018 L169.135,283.018 L166.653,274.093 L167.476,274.093 L168.977,279.128 C169.33,280.223 170.839,279.78 170.495,278.598 L168.832,273.124 C168.653,272.502 167.866,271.398 166.501,271.398 L162.685,271.398 L162.685,271.397 z" fill="#CBCBCB"/>
      <path d="M164.491,270.988 C163.421,270.988 162.552,270.119 162.552,269.05 C162.552,267.976 163.421,267.107 164.491,267.107 C165.564,267.107 166.43,267.976 166.43,269.05 C166.431,270.119 165.564,270.988 164.491,270.988 z" fill="#CBCBCB"/>
      <path d="M145.648,270.954 C144.573,270.954 143.704,270.089 143.704,269.014 C143.704,267.946 144.573,267.077 145.648,267.077 C146.716,267.077 147.585,267.946 147.585,269.014 C147.585,270.089 146.716,270.954 145.648,270.954 z" fill="#CBCBCB"/>
      <path d="M148.27,289.763 C148.27,290.365 147.791,290.852 147.189,290.852 C146.589,290.852 146.1,290.365 146.1,289.763 L146.1,280.641 L145.188,280.641 L145.188,289.763 C145.188,290.365 144.699,290.852 144.1,290.852 C143.498,290.852 143.016,290.365 143.016,289.763 L143.009,274.036 L142.104,274.036 L142.104,279.834 C142.104,281.001 140.586,281.001 140.586,279.834 L140.586,273.909 C140.586,272.622 141.588,271.364 143.095,271.364 L148.237,271.357 C149.615,271.357 150.719,272.479 150.719,273.873 L150.719,279.834 C150.719,280.988 149.192,280.988 149.192,279.834 L149.192,274.036 L148.271,274.036 L148.271,289.763 L148.27,289.763 z" fill="#CBCBCB"/>
    </g>
    <g>
      <g>
        <path d="M473.455,237.41 C474.874,237.41 476.038,236.26 476.038,234.841 C476.038,233.407 474.874,232.255 473.455,232.255 C472.031,232.255 470.872,233.408 470.872,234.841 C470.873,236.26 472.032,237.41 473.455,237.41" fill="#000000"/>
        <path d="M477.577,238.244 L469.282,238.244 C467.449,238.244 465.979,239.739 465.979,241.593 L465.979,247.77 C465.979,249.306 468.015,249.306 468.015,247.77 L468.015,241.808 L470.126,241.808 L470.126,249.327 C471.205,249.582 472.31,249.776 473.477,249.776 C474.63,249.776 475.725,249.583 476.804,249.332 L476.804,241.808 L478.898,241.808 L478.898,247.77 C478.898,249.316 480.932,249.316 480.932,247.77 L480.932,241.629 C480.929,239.933 479.595,238.244 477.577,238.244" fill="#000000"/>
      </g>
      <path d="M483.222,232.255 C480.442,230.355 477.054,229.235 473.423,229.235 C469.815,229.235 466.47,230.338 463.678,232.207 L461.489,228.957 C464.893,226.655 469.004,225.322 473.423,225.322 C477.875,225.322 482.008,226.671 485.421,228.995 L483.222,232.255 z" fill="#000000"/>
      <path d="M487.401,225.322 C483.423,222.615 478.612,221.047 473.439,221.047 C468.292,221.047 463.505,222.6 459.531,225.276 L457.32,222.097 C461.913,218.984 467.464,217.166 473.439,217.166 C479.425,217.166 484.977,218.995 489.59,222.107 L487.401,225.322 z" fill="#000000"/>
      <path d="M491.555,218.684 C486.387,215.184 480.15,213.136 473.43,213.136 C466.72,213.136 460.488,215.179 455.325,218.669 L453.168,215.444 C458.939,211.536 465.92,209.258 473.431,209.258 C480.957,209.258 487.953,211.557 493.745,215.486 L491.555,218.684 z" fill="#000000"/>
    </g>
  </g>
</svg>
